<svg width="1184" height="764" viewBox="0 0 1184 764" fill="none" xmlns="http://www.w3.org/2000/svg">
    <path d="M1637.1 662.761L104.768 749.304V626.184H1637.1V662.761Z" fill="#D6EDFF" />
    <path d="M1567.27 530.758L184.295 617.302V494.182H1567.27V530.758Z" fill="#D6EDFF" />
    <path d="M1478.22 399.211L258.954 485.755V362.635H1478.22V399.211Z" fill="#D6EDFF" />
    <path d="M1408.03 268.576L342.129 355.12V232H1408.03V268.576Z" fill="#D6EDFF" />
    <path d="M104.768 626.184H1637.1V744.75" stroke="#66B0F0" stroke-width="2.73297" stroke-miterlimit="10" />
    <path d="M184.295 493.726H1567.27V617.348" stroke="#66B0F0" stroke-width="2.73297" stroke-miterlimit="10" />
    <path d="M258.954 362.18H1478.22V485.755" stroke="#66B0F0" stroke-width="2.73297" stroke-miterlimit="10" />
    <path d="M342.582 231.544H1408.03V355.12" stroke="#66B0F0" stroke-width="2.73297" stroke-miterlimit="10" />
    <path d="M1312.38 145.137L437.827 220.977V113.07H1312.38V145.137Z" fill="#D6EDFF" />
    <path d="M438.191 112.66H1312.38V220.977" stroke="#66B0F0" stroke-width="2.73297" stroke-miterlimit="10" />
    <path d="M837.744 342.41H705.604V359.4H837.744V342.41Z" stroke="#F3B304" stroke-width="2.06362" stroke-miterlimit="10" stroke-linecap="round" />
    <path d="M872.998 329.409H705.604V343.097H872.998V329.409Z" fill="#93CAF4" />
    <path d="M818.587 309.667H705.604V329.065H818.587V309.667Z" fill="#078BF0" />
    <path d="M837.745 294.843H705.604V309.323H837.745V294.843Z" stroke="#F3B304" stroke-width="2.06362" stroke-miterlimit="10" stroke-linecap="round" />
    <path d="M914.465 455.365C914.465 460.492 910.37 464.655 905.347 464.655H765.205C760.147 464.655 756.087 460.492 756.087 455.365C756.087 450.238 760.182 446.075 765.205 446.075H905.347C910.37 446.075 914.465 450.238 914.465 455.365Z" fill="#FE5244" />
    <path d="M855.323 358.612H797.966V398.525H908.758C901.739 374.853 879.994 358.612 855.323 358.612Z" fill="white" stroke="#FFCF2D" stroke-width="2.73297" stroke-miterlimit="10" />
    <path d="M808.284 358.612V398.525L784.543 398.559V358.612H808.284Z" fill="#FFCF2D" stroke="#FFCF2D" stroke-width="2.73297" stroke-miterlimit="10" />
    <path d="M996.599 397.733L908.757 398.525C908.757 398.525 930.743 368.728 991.094 376.607C991.094 376.607 943.887 366.767 895.992 376.607" stroke="#FFCF2D" stroke-width="2.73297" stroke-miterlimit="10" />
    <path d="M908.756 398.525C908.756 398.525 947.258 377.365 994.19 387.618" stroke="#FFCF2D" stroke-width="2.73297" stroke-miterlimit="10" />
    <path d="M918.553 431.178C918.553 434.928 919.138 438.334 920.067 440.846H877.918C875.751 440.846 873.961 438.954 873.961 436.648V425.741C873.961 423.402 875.716 421.544 877.918 421.544H920.067C919.138 424.021 918.553 427.427 918.553 431.178Z" fill="#FFCF2D" />
    <path d="M873.996 425.741V436.648C873.996 438.988 875.889 440.846 878.194 440.846H923.474V441.637C923.474 443.564 921.926 445.112 919.999 445.112H761.622C759.695 445.112 758.146 443.564 758.146 441.637V420.718C758.146 418.791 759.695 417.242 761.622 417.242H919.999C921.926 417.242 923.474 418.791 923.474 420.718V421.509H878.194C875.889 421.543 873.996 423.401 873.996 425.741Z" fill="white" />
    <path d="M873.996 425.741V436.648C873.996 438.988 875.889 440.846 878.194 440.846H923.474V441.637C923.474 443.564 921.926 445.112 919.999 445.112H761.622C759.695 445.112 758.146 443.564 758.146 441.637V420.718C758.146 418.791 759.695 417.242 761.622 417.242H919.999C921.926 417.242 923.474 418.791 923.474 420.718V421.509H878.194C875.889 421.543 873.996 423.401 873.996 425.741Z" stroke="#FFCF2D" stroke-width="2.73297" stroke-miterlimit="10" />
    <path d="M814.987 472.122C813.336 473.67 812.304 476.492 812.304 478.866C812.304 483.58 816.432 488.431 821.525 488.431H948.419C948.419 490.633 946.63 492.457 944.394 492.457H791.246C787.152 492.457 783.436 490.908 780.752 488.431C778.068 485.954 776.382 482.513 776.382 478.694C776.382 471.09 783.023 464.931 791.246 464.931H944.394C946.596 464.931 948.419 466.72 948.419 468.956V469.679H821.525C818.944 469.645 816.639 470.608 814.987 472.122Z" fill="#FFCF2D" />
    <path d="M939.231 469.644V488.087H948.383V489.635H821.076C819.665 489.635 818.289 489.36 817.05 488.844C815.708 488.293 814.469 487.502 813.472 486.47C811.51 484.508 810.306 481.825 810.306 478.866C810.306 472.913 815.123 468.096 821.076 468.096H948.383V469.644H939.231Z" fill="#FE5244" />
    <path d="M942.778 469.644V488.087H821.527C816.434 488.087 812.306 483.958 812.306 478.865C812.306 476.319 813.338 474.014 814.989 472.328C816.641 470.676 818.946 469.644 821.492 469.644H942.778Z" fill="white" />
    <path d="M942.775 469.644V488.087" stroke="#FE5244" stroke-width="2.27747" stroke-miterlimit="10" />
    <path d="M838.416 482.719V498.099H827.784V484.68C827.784 481.48 825.204 478.866 821.969 478.866H817.221V476.904H832.601C835.836 476.904 838.416 479.519 838.416 482.719Z" fill="#FE5244" />
    <path d="M948.912 399.385H768.136C763.457 399.385 759.672 403.169 759.672 407.849C759.706 412.494 763.457 416.279 768.136 416.279H948.912C953.592 416.279 957.377 412.494 957.377 407.814C957.342 403.169 953.557 399.385 948.912 399.385Z" fill="#66B0F0" />
    <path d="M907.896 416.313H906.072C906.279 416.863 906.795 418.24 907.93 418.24C908.618 418.24 911.99 417.724 911.99 407.849C911.99 404.339 911.577 401.655 910.752 399.832C909.754 397.664 908.446 397.423 907.965 397.423C906.795 397.423 906.279 398.834 906.072 399.384H907.896C907.965 399.247 908.033 399.178 908.068 399.144C908.687 399.316 910.339 401.036 910.339 407.849C910.339 414.661 908.687 416.347 908.068 416.554C907.999 416.485 907.93 416.416 907.896 416.313Z" fill="#9A3B82" />
    <path d="M922.829 416.313H921.005C921.212 416.863 921.728 418.24 922.863 418.24C923.551 418.24 926.923 417.724 926.923 407.849C926.923 404.339 926.511 401.655 925.685 399.832C924.687 397.664 923.379 397.423 922.898 397.423C921.728 397.423 921.212 398.834 921.005 399.384H922.829C922.898 399.247 922.967 399.178 923.001 399.144C923.62 399.316 925.272 401.036 925.272 407.849C925.272 414.661 923.62 416.347 923.001 416.554C922.967 416.485 922.898 416.416 922.829 416.313Z" fill="#9A3B82" />
    <path d="M937.799 416.313H935.975C936.182 416.863 936.698 418.24 937.833 418.24C938.797 418.24 941.893 417.483 941.893 407.849C941.893 398.18 938.797 397.458 937.833 397.458C936.663 397.458 936.147 398.868 935.941 399.419H937.765C937.833 399.281 937.902 399.212 937.937 399.178C938.625 399.35 940.207 401.139 940.207 407.883C940.207 412.012 939.623 414.145 939.106 415.246C938.694 416.141 938.246 416.519 937.937 416.588C937.902 416.485 937.868 416.416 937.799 416.313Z" fill="#9A3B82" />
    <path d="M862.991 416.313H861.168C861.374 416.863 861.89 418.24 863.026 418.24C863.714 418.24 867.086 417.724 867.086 407.849C867.086 398.18 863.989 397.458 863.026 397.458C861.856 397.458 861.34 398.868 861.133 399.419H862.957C863.026 399.281 863.095 399.212 863.129 399.178C863.817 399.35 865.4 401.139 865.4 407.883C865.4 414.696 863.748 416.382 863.129 416.588C863.129 416.485 863.06 416.416 862.991 416.313Z" fill="#9A3B82" />
    <path d="M877.959 416.313H876.136C876.342 416.863 876.858 418.24 877.993 418.24C878.647 418.24 879.852 417.964 880.781 416.038C881.606 414.283 882.054 411.53 882.054 407.849C882.054 404.167 881.641 401.415 880.781 399.66C879.852 397.733 878.647 397.458 877.993 397.458C876.824 397.458 876.308 398.868 876.101 399.419H877.925C877.993 399.281 878.062 399.212 878.097 399.178C878.51 399.247 878.922 399.694 879.267 400.417C879.748 401.449 880.368 403.582 880.368 407.883C880.368 412.15 879.783 414.283 879.267 415.349C878.922 416.072 878.475 416.519 878.097 416.588C878.062 416.485 878.028 416.416 877.959 416.313Z" fill="#9A3B82" />
    <path d="M892.926 416.313H891.103C891.309 416.863 891.825 418.24 892.961 418.24C893.924 418.24 897.021 417.483 897.021 407.849C897.021 397.939 893.649 397.458 892.961 397.458C891.791 397.458 891.275 398.868 891.068 399.419H892.892C892.961 399.281 893.03 399.212 893.064 399.178C893.683 399.35 895.335 401.07 895.335 407.883C895.335 414.627 893.752 416.416 893.064 416.588C893.03 416.485 892.995 416.416 892.926 416.313Z" fill="#9A3B82" />
    <path d="M818.14 416.313H816.316C816.523 416.863 817.039 418.24 818.174 418.24C818.691 418.24 819.998 417.999 820.961 415.831C821.787 414.042 822.2 411.324 822.2 407.814C822.2 404.58 821.753 401.862 820.961 400.004C820.239 398.352 819.207 397.389 818.14 397.389C816.97 397.389 816.454 398.8 816.248 399.35H818.071C818.14 399.247 818.174 399.144 818.209 399.109C818.415 399.212 818.897 399.591 819.379 400.692C819.895 401.827 820.48 403.995 820.48 407.78C820.48 414.593 818.828 416.279 818.209 416.485C818.243 416.485 818.209 416.416 818.14 416.313Z" fill="#9A3B82" />
    <path d="M833.091 416.313H831.268C831.474 416.863 831.99 418.24 833.126 418.24C833.642 418.24 834.949 417.999 835.913 415.831C836.738 414.042 837.151 411.324 837.151 407.814C837.151 398.146 834.055 397.423 833.091 397.423C831.921 397.423 831.405 398.834 831.199 399.384H833.022C833.091 399.247 833.16 399.178 833.194 399.144C833.883 399.316 835.465 401.105 835.465 407.849C835.465 414.661 833.814 416.347 833.194 416.554C833.194 416.485 833.16 416.416 833.091 416.313Z" fill="#9A3B82" />
    <path d="M848.056 416.313H846.232C846.439 416.863 846.955 418.24 848.09 418.24C849.054 418.24 852.15 417.483 852.15 407.849C852.15 404.167 851.737 401.415 850.877 399.66C849.948 397.733 848.744 397.458 848.09 397.458C846.92 397.458 846.404 398.868 846.198 399.419H848.021C848.09 399.281 848.159 399.212 848.193 399.178C848.606 399.247 849.019 399.694 849.363 400.417C849.845 401.449 850.464 403.582 850.464 407.883C850.464 414.627 848.881 416.416 848.193 416.588C848.159 416.485 848.09 416.416 848.056 416.313Z" fill="#9A3B82" />
    <path d="M773.266 416.312H771.443C771.649 416.862 772.165 418.239 773.301 418.239C774.367 418.239 775.365 417.275 776.122 415.624C776.948 413.766 777.361 411.082 777.361 407.813C777.361 403.994 776.673 401.585 776.122 400.243C775.365 398.454 774.333 397.422 773.301 397.422C772.131 397.422 771.615 398.833 771.408 399.383H773.232C773.301 399.28 773.335 399.211 773.369 399.142C773.61 399.28 774.126 399.762 774.608 401.069C775.09 402.273 775.64 404.407 775.64 407.813C775.64 411.632 775.055 413.766 774.539 414.935C774.058 416.036 773.576 416.415 773.369 416.518C773.369 416.484 773.301 416.415 773.266 416.312Z" fill="#9A3B82" />
    <path d="M788.202 416.313H786.378C786.585 416.863 787.101 418.24 788.236 418.24C789.303 418.24 790.301 417.276 791.058 415.625C791.883 413.767 792.296 411.083 792.296 407.814C792.296 401.07 790.197 397.423 788.236 397.423C787.066 397.423 786.55 398.834 786.344 399.384H788.167C788.236 399.281 788.271 399.212 788.305 399.144C788.546 399.281 789.027 399.763 789.544 401.002C790.025 402.172 790.576 404.339 790.576 407.814C790.576 411.634 789.991 413.767 789.475 414.937C788.993 416.038 788.511 416.416 788.305 416.519C788.305 416.485 788.271 416.416 788.202 416.313Z" fill="#9A3B82" />
    <path d="M803.17 416.313H801.346C801.553 416.863 802.069 418.24 803.204 418.24C803.721 418.24 804.994 417.999 806.026 415.694C806.852 413.836 807.264 411.186 807.264 407.849C807.264 404.614 806.817 401.896 806.026 400.038C805.303 398.387 804.271 397.423 803.204 397.423C802.035 397.423 801.518 398.834 801.312 399.384H803.136C803.204 399.281 803.239 399.178 803.273 399.144C803.48 399.247 803.961 399.625 804.443 400.726C804.959 401.862 805.544 404.029 805.544 407.814C805.544 411.702 804.959 413.836 804.443 414.971C803.961 416.038 803.48 416.416 803.273 416.485C803.273 416.485 803.239 416.416 803.17 416.313Z" fill="#9A3B82" />
    <path d="M342.219 360.221V75.9017" stroke="#66B0F0" stroke-width="2.73297" stroke-miterlimit="10" />
    <path d="M577.569 -117L42.5904 321.231C23.8696 339.952 13.3477 365.323 13.3477 391.788C13.3477 446.902 58.0317 493.864 113.147 493.864" stroke="#66B0F0" stroke-width="2.73297" stroke-miterlimit="10" />
    <path d="M182.927 617.348V205.991" stroke="#66B0F0" stroke-width="2.73297" stroke-miterlimit="10" />
    <path d="M1172.67 -117L1707.7 321.231C1726.42 339.952 1736.94 365.323 1736.94 391.788C1736.94 446.902 1692.26 493.864 1637.14 493.864" stroke="#66B0F0" stroke-width="2.73297" stroke-miterlimit="10" />
    <path d="M169.035 753.677C169.035 753.677 132.413 720.609 133.142 696.877C133.962 669.73 159.925 682.848 161.292 673.055C162.704 663.307 133.871 596.623 174 597.124C214.129 597.625 195.454 661.577 206.34 667.498C217.226 673.374 235.264 666.359 230.39 692.231C225.516 718.149 184.977 753.359 184.977 753.359L169.035 753.677Z" fill="#078BF0" />
    <path d="M59.0796 752.857C35.3483 752.857 17.083 709.494 53.6592 698.016C90.2354 686.537 94.2438 721.11 86.2726 722.43C78.3014 723.751 74.3386 656.019 140.158 665.22C211.989 675.241 168.079 752.857 168.079 752.857C168.079 752.857 210.44 681.618 171.496 598.172" stroke="#FFCF2D" stroke-width="2.73297" stroke-miterlimit="10" stroke-linecap="round" />
    <path d="M217.821 752.857C217.821 752.857 254.99 675.059 290.655 699.838C326.32 724.617 242.6 752.857 242.6 752.857" stroke="#FFCF2D" stroke-width="2.73297" stroke-miterlimit="10" stroke-linecap="round" />
    <path d="M231.212 752.174C231.212 752.174 267.333 703.891 291.155 700.339" stroke="#FFCF2D" stroke-width="2.73297" stroke-miterlimit="10" stroke-linecap="round" />
    <path d="M185.612 752.402C185.612 752.402 205.153 706.898 222.462 679.933" stroke="#FFCF2D" stroke-width="2.73297" stroke-miterlimit="10" stroke-linecap="round" />
    <path d="M227.062 708.902C223.236 711.544 206.155 713.138 206.155 713.138C206.155 713.138 213.762 697.742 217.543 695.101C221.369 692.459 226.561 693.415 229.203 697.241C231.845 701.067 230.889 706.306 227.062 708.902Z" stroke="#FFCF2D" stroke-width="2.73297" stroke-miterlimit="10" />
    <path d="M242.184 677.838C238.357 680.48 221.276 682.074 221.276 682.074C221.276 682.074 228.883 666.678 232.664 664.036C236.49 661.394 241.683 662.351 244.324 666.177C246.966 670.003 246.01 675.242 242.184 677.838Z" stroke="#FFCF2D" stroke-width="2.73297" stroke-miterlimit="10" />
    <path d="M248.514 651.464C246.054 655.382 230.977 663.58 230.977 663.58C230.977 663.58 231.843 646.454 234.348 642.537C236.807 638.619 242 637.435 245.917 639.895C249.835 642.354 250.973 647.547 248.514 651.464Z" stroke="#FFCF2D" stroke-width="2.73297" stroke-miterlimit="10" />
    <path d="M195.45 692.596C195.405 697.242 203.695 712.273 203.695 712.273C203.695 712.273 212.167 697.333 212.213 692.732C212.258 688.086 208.523 684.305 203.877 684.305C199.277 684.26 195.496 687.949 195.45 692.596Z" stroke="#FFCF2D" stroke-width="2.73297" stroke-miterlimit="10" />
    <path d="M212.395 661.895C212.349 666.541 220.639 681.573 220.639 681.573C220.639 681.573 229.111 666.632 229.157 662.032C229.202 657.386 225.467 653.605 220.821 653.605C216.175 653.605 212.44 657.295 212.395 661.895Z" stroke="#FFCF2D" stroke-width="2.73297" stroke-miterlimit="10" />
    <path d="M0 752.948H926.203" stroke="#66B0F0" stroke-width="2.73297" stroke-miterlimit="10" />
    <path d="M539.307 190.778C539.307 187.818 539.17 184.948 538.942 182.261C536.164 181.031 518.627 172.604 514.209 157.436C514.209 157.436 500.909 184.356 481.14 181.258C481.095 181.258 481.049 181.258 481.003 181.213C481.003 181.213 481.004 181.213 480.958 181.213L476.175 178.753C476.084 178.708 476.039 178.662 475.948 178.662C470.527 176.066 464.287 179.436 463.194 185.085C461.918 181.532 461.007 177.751 460.461 173.788C456.953 147.279 471.575 125.096 495.853 125.096C517.99 125.096 539.261 145.912 542.632 167.912C543.998 176.248 542.586 184.037 539.307 190.778Z" fill="#FFCF2D" />
    <path d="M467.113 193.967C464.972 206.538 418.056 189.002 407.625 210C400.838 223.71 411.315 240.245 381.844 241.657C346.726 243.297 332.469 262.518 338.162 307.066L434.089 256.187L460.873 232.319L472.533 196.472L467.113 193.967Z" fill="#FFCF2D" />
    <path d="M521.771 223.574V236.054L492.118 254.001L460.871 232.365L472.532 196.517L521.771 223.574Z" fill="#FFB573" />
    <path d="M477.906 199.341L492.117 254.001L521.77 236.054V223.574L477.906 199.341Z" fill="#A15842" />
    <path d="M539.308 191.051C539.308 211.412 526.236 227.946 510.111 227.946C496.902 227.946 485.195 216.878 481.369 201.664L468.023 194.832C466.52 194.058 465.29 192.919 464.425 191.507C463.56 190.14 463.104 188.501 463.104 186.815C463.104 180.074 470.21 175.747 476.222 178.799L481.187 181.304V181.258C500.956 184.31 514.256 157.436 514.256 157.436C518.674 172.604 536.211 180.985 538.989 182.26C539.217 185.039 539.308 187.954 539.308 191.051Z" fill="#FFB573" />
    <path d="M539.211 186.816C539.211 186.816 531.878 183.764 527.369 188.319C521.766 193.967 522.996 210.182 522.996 210.182" stroke="#A15842" stroke-width="1.82198" stroke-miterlimit="10" stroke-linecap="round" />
    <path d="M512.886 185.859C512.886 185.859 506.828 185.403 500.815 188.592" stroke="#A15842" stroke-width="1.82198" stroke-miterlimit="10" stroke-linecap="round" />
    <path d="M477.037 190.369C476.536 187.362 474.35 184.903 471.435 183.992" stroke="#A15842" stroke-width="1.82198" stroke-miterlimit="10" stroke-linecap="round" />
    <path d="M510.896 196.836C511.409 194.942 510.9 193.156 509.759 192.846C508.618 192.537 507.277 193.822 506.763 195.715C506.25 197.609 506.759 199.395 507.9 199.705C509.041 200.014 510.383 198.729 510.896 196.836Z" fill="#A15842" />
    <path d="M533.216 197.746C533.73 195.852 533.221 194.066 532.079 193.757C530.938 193.447 529.597 194.732 529.084 196.626C528.57 198.52 529.079 200.306 530.221 200.615C531.362 200.924 532.703 199.64 533.216 197.746Z" fill="#A15842" />
    <path d="M520.767 215.648C520.767 215.648 512.887 217.743 510.609 211.093" stroke="#A15842" stroke-width="1.82198" stroke-miterlimit="10" stroke-linecap="round" />
    <path d="M402.57 256.323H579.985C604.309 256.323 626.4 270.671 636.239 292.945L669.763 361.907L368.818 507.619L271.843 466.078L324.635 311.574C336.296 278.46 367.497 256.323 402.57 256.323Z" fill="white" stroke="#078BF0" stroke-width="2.27747" stroke-miterlimit="10" />
    <path d="M485.742 286.75L471.03 278.05L491.436 254.82H492.894L513.573 276.501L499.225 285.201L560.808 412.102L443.882 469.267L485.742 286.75Z" fill="#078BF0" />
    <g opacity="0.2">
        <g opacity="0.2">
            <g opacity="0.2">
                <path opacity="0.2" d="M461.33 393.199V444.853H459.508V401.125L461.33 393.199Z" fill="white" />
            </g>
            <g opacity="0.2">
                <path opacity="0.2" d="M480.509 309.434V444.807H478.687V317.36L479.826 312.441L480.236 310.619L480.509 309.434Z" fill="white" />
                <path opacity="0.2" d="M480.509 267.21V283.653L478.687 282.606V269.305L480.509 267.21Z" fill="white" />
            </g>
            <g opacity="0.2">
                <path opacity="0.2" d="M499.727 262.017V441.983L497.905 442.848V260.104L499.727 262.017Z" fill="white" />
            </g>
            <g opacity="0.2">
                <path opacity="0.2" d="M518.951 325.831V432.554L517.129 433.465V322.096L518.951 325.831Z" fill="white" />
            </g>
            <g opacity="0.2">
                <path opacity="0.2" d="M538.174 365.414V423.171L536.352 424.082V361.634L538.174 365.414Z" fill="white" />
            </g>
            <g opacity="0.2">
                <path opacity="0.2" d="M557.348 404.997V413.788L555.526 414.653V401.262L557.348 404.997Z" fill="white" />
            </g>
        </g>
        <g opacity="0.2">
            <g opacity="0.2">
                <path opacity="0.2" d="M493.4 445.081L489.665 446.903H449.035L449.445 445.081H493.4Z" fill="white" />
            </g>
            <g opacity="0.2">
                <path opacity="0.2" d="M532.659 425.858L528.924 427.68H453.403L453.858 425.858H532.659Z" fill="white" />
            </g>
            <g opacity="0.2">
                <path opacity="0.2" d="M559.031 408.458H457.82L458.23 406.636H558.166L559.031 408.458Z" fill="white" />
            </g>
            <g opacity="0.2">
                <path opacity="0.2" d="M549.744 389.282H462.244L462.654 387.46H548.833L549.744 389.282Z" fill="white" />
            </g>
            <g opacity="0.2">
                <path opacity="0.2" d="M540.408 370.061H466.618L467.074 368.239H539.543L540.408 370.061Z" fill="white" />
            </g>
            <g opacity="0.2">
                <path opacity="0.2" d="M531.068 350.839H471.034L471.444 349.017H530.203L531.068 350.839Z" fill="white" />
            </g>
            <g opacity="0.2">
                <path opacity="0.2" d="M521.775 331.662H475.452L475.862 329.84H520.865L521.775 331.662Z" fill="white" />
            </g>
            <g opacity="0.2">
                <path opacity="0.2" d="M512.438 312.44H479.824L480.234 310.618H511.572L512.438 312.44Z" fill="white" />
            </g>
            <g opacity="0.2">
                <path opacity="0.2" d="M503.149 293.219H484.246L484.656 291.397H502.238L503.149 293.219Z" fill="white" />
            </g>
            <g opacity="0.2">
                <path opacity="0.2" d="M511.209 274.042H474.542L476.136 272.221H509.478L511.209 274.042Z" fill="white" />
            </g>
        </g>
    </g>
    <path d="M396.236 355.165L381.933 403.448" stroke="#078BF0" stroke-width="2.27747" stroke-miterlimit="10" />
    <path d="M546.823 256.232L513.071 275.545L492.893 254.82H491.435L471.484 277.139L434.088 256.232L461.327 232.364L492.118 254L521.771 236.054L546.823 256.232Z" fill="white" stroke="#078BF0" stroke-width="2.27747" stroke-miterlimit="10" stroke-linejoin="round" />
    <path d="M727.475 312.805L692.128 425.13H477.135L512.481 312.805H727.475Z" fill="#FACF50" />
    <path d="M591.464 425.13L626.811 312.805" stroke="white" stroke-width="2.73297" stroke-miterlimit="10" />
    <path d="M516.537 312.805C516.537 312.805 543.456 296.817 582.447 299.277C621.437 301.691 626.903 312.805 626.903 312.805H516.537Z" fill="white" stroke="#FACF50" stroke-width="2.27747" stroke-miterlimit="10" stroke-linecap="round" />
    <path d="M719.687 312.805C719.687 312.805 668.945 290.395 626.903 312.805H719.687Z" fill="white" stroke="#FACF50" stroke-width="2.27747" stroke-miterlimit="10" stroke-linecap="round" />
    <path d="M621.3 542.556L516.81 625.091C504.329 634.93 502.689 653.241 513.211 665.129L584.997 746.572C584.997 746.572 591.83 741.516 589.552 721.201C586.364 693.097 594.107 666.815 594.107 666.815L748.747 556.539C772.661 539.504 787.055 512.083 787.465 482.704C788.057 442.803 739.683 422.579 711.67 450.956L621.3 542.556Z" fill="#EAA58B" />
    <path d="M594.065 666.769C594.065 666.769 586.367 693.051 589.51 721.155C591.788 741.516 584.955 746.572 584.955 746.572L513.169 665.129C502.648 653.196 504.333 634.93 516.768 625.091L550.292 598.582C551.294 597.853 552.296 597.079 553.299 596.304L595.933 562.598L621.258 542.556C621.258 542.556 619.846 575.853 635.515 637.208L594.065 666.769Z" fill="white" stroke="#A15842" stroke-width="2.73297" stroke-miterlimit="10" stroke-linecap="round" />
    <path d="M591.193 723.888C592.058 731.769 591.512 737.462 590.464 741.471C590.236 742.427 589.963 743.247 589.644 744.021C587.868 748.713 585.545 750.262 585.545 750.262L511.117 665.858C501.461 654.881 501.734 638.711 510.98 628.098C512.119 626.777 513.44 625.502 514.898 624.363L517.312 622.45L538.264 605.915C536.898 615.025 542.774 630.284 554.07 644.678C568.373 662.898 587.367 672.6 595.657 667.589C594.336 672.418 588.278 697.88 591.193 723.888Z" fill="#FFCF2D" />
    <path d="M590.508 741.47C590.28 742.427 590.007 743.247 589.688 744.021L515.807 660.21C510.341 654.015 507.745 646.044 508.473 637.8C508.792 634.384 509.658 631.058 511.024 628.052C512.163 626.731 513.484 625.456 514.941 624.317L517.356 622.404C513.575 626.731 511.252 632.106 510.751 637.982C510.068 645.589 512.482 652.968 517.538 658.707L590.508 741.47Z" fill="white" />
    <path d="M592.65 681.436C592.65 681.436 572.608 673.465 569.921 681.436C567.279 689.407 591.147 694.463 591.147 694.463L592.65 681.436Z" fill="white" />
    <path d="M720.597 434.467V684.033C691.582 713.503 653.047 697.652 653.047 697.652C619.022 599.721 621.299 545.335 621.299 545.335L595.974 565.331C531.203 524.883 525.919 431.825 525.782 429.593L631.32 378.532C672.634 358.536 720.597 388.599 720.597 434.467Z" fill="#EAA58B" />
    <path d="M631.367 378.487C672.634 358.536 720.598 388.599 720.598 434.421V683.987C691.583 713.457 653.048 697.606 653.048 697.606C619.068 599.675 621.3 545.243 621.3 545.243" stroke="#A15842" stroke-width="2.73297" stroke-miterlimit="10" stroke-linecap="round" />
    <path d="M595.975 565.285L553.34 598.992C476.908 659.436 364.492 605.004 364.492 507.574L525.783 429.502C525.783 429.502 525.783 429.502 525.783 429.548C525.919 431.825 531.249 524.883 595.975 565.285Z" fill="#078BF0" />
    <g opacity="0.2">
        <g opacity="0.2">
            <g opacity="0.2">
                <path opacity="0.2" d="M384.627 497.872V573.53C383.989 572.619 383.397 571.708 382.805 570.797V498.738L384.627 497.872Z" fill="white" />
            </g>
            <g opacity="0.2">
                <path opacity="0.2" d="M403.85 488.58V595.029C403.258 594.482 402.62 593.936 402.028 593.389V489.445L403.85 488.58Z" fill="white" />
            </g>
            <g opacity="0.2">
                <path opacity="0.2" d="M423.024 479.288V608.694C422.432 608.329 421.794 608.01 421.202 607.646V480.153L423.024 479.288Z" fill="white" />
            </g>
            <g opacity="0.2">
                <path opacity="0.2" d="M442.248 469.996V617.531C441.656 617.303 441.018 617.121 440.426 616.893V470.907L442.248 469.996Z" fill="white" />
            </g>
            <g opacity="0.2">
                <path opacity="0.2" d="M461.471 460.704V622.632C460.879 622.541 460.242 622.405 459.649 622.314V461.615L461.471 460.704Z" fill="white" />
            </g>
            <g opacity="0.2">
                <path opacity="0.2" d="M480.644 451.366V624.363C480.052 624.363 479.414 624.363 478.822 624.318V452.277L480.644 451.366Z" fill="white" />
            </g>
            <g opacity="0.2">
                <path opacity="0.2" d="M499.867 442.074V622.905C499.275 622.996 498.637 623.088 498.045 623.179V442.985L499.867 442.074Z" fill="white" />
            </g>
            <g opacity="0.2">
                <path opacity="0.2" d="M519.092 432.782V618.031C518.5 618.259 517.862 618.441 517.27 618.669V433.693L519.092 432.782Z" fill="white" />
            </g>
            <g opacity="0.2">
                <path opacity="0.2" d="M538.265 487.851V609.24C537.673 609.605 537.035 609.923 536.443 610.242V482.522C536.534 482.84 536.625 483.159 536.762 483.433C536.944 484.025 537.172 484.662 537.354 485.254C537.673 486.12 537.992 486.985 538.265 487.851Z" fill="white" />
            </g>
            <g opacity="0.2">
                <path opacity="0.2" d="M557.488 527.024V595.758L555.666 597.215V524.199C556.258 525.11 556.85 526.067 557.488 527.024Z" fill="white" />
            </g>
            <g opacity="0.2">
                <path opacity="0.2" d="M576.712 550.254V581.318H575.755L574.89 582.002V548.432C575.482 549.069 576.074 549.661 576.712 550.254Z" fill="white" />
            </g>
        </g>
        <g opacity="0.2">
            <g opacity="0.2">
                <path opacity="0.2" d="M519.406 617.894C519.27 617.94 519.179 617.985 519.042 618.031C518.45 618.259 517.812 618.441 517.22 618.669C516.081 619.033 514.942 619.398 513.758 619.762H448.987C447.074 619.215 445.161 618.578 443.248 617.94H519.406V617.894Z" fill="white" />
            </g>
            <g opacity="0.2">
                <path opacity="0.2" d="M553.749 598.672L553.339 598.991C552.701 599.492 552.063 599.993 551.426 600.494H410.587C409.767 599.902 408.993 599.31 408.218 598.672H553.749Z" fill="white" />
            </g>
            <g opacity="0.2">
                <path opacity="0.2" d="M578.025 579.496L576.658 580.544V581.318H390.452C389.951 580.726 389.45 580.088 388.995 579.496H578.025Z" fill="white" />
            </g>
            <g opacity="0.2">
                <path opacity="0.2" d="M591.14 562.096H377.741C377.422 561.504 377.104 560.866 376.785 560.274H588.59C589.41 560.912 590.275 561.504 591.14 562.096Z" fill="white" />
            </g>
            <g opacity="0.2">
                <path opacity="0.2" d="M569.643 542.874H369.772C369.589 542.282 369.407 541.645 369.225 541.052H568.094C568.549 541.69 569.096 542.282 569.643 542.874Z" fill="white" />
            </g>
            <g opacity="0.2">
                <path opacity="0.2" d="M555.343 523.698H365.539C365.448 523.106 365.402 522.468 365.311 521.876H554.205C554.615 522.468 554.979 523.06 555.343 523.698Z" fill="white" />
            </g>
            <g opacity="0.2">
                <path opacity="0.2" d="M545.047 504.476H371.003L374.784 502.654H544.227C544.455 503.246 544.729 503.884 545.047 504.476Z" fill="white" />
            </g>
            <g opacity="0.2">
                <path opacity="0.2" d="M537.394 485.254H410.676L414.456 483.432H536.802C536.939 484.07 537.167 484.662 537.394 485.254Z" fill="white" />
            </g>
            <g opacity="0.2">
                <path opacity="0.2" d="M531.749 466.078H450.307L454.087 464.256H531.294C531.476 464.848 531.612 465.441 531.749 466.078Z" fill="white" />
            </g>
            <g opacity="0.2">
                <path opacity="0.2" d="M527.834 446.856H489.982L493.763 445.034H527.561C527.652 445.626 527.743 446.218 527.834 446.856Z" fill="white" />
            </g>
        </g>
    </g>
    <path d="M525.784 429.548C525.92 431.825 531.204 524.883 595.975 565.331" stroke="white" stroke-width="2.73297" stroke-miterlimit="10" />
    <path d="M720.596 594.847V684.033C691.581 713.503 653.046 697.652 653.046 697.652C638.151 654.744 630.226 620.172 625.99 594.892H720.596V594.847Z" fill="white" />
    <path d="M653.002 697.606C638.108 654.699 630.182 620.127 625.946 594.847H720.552V684.033" stroke="#A15842" stroke-width="2.73297" stroke-miterlimit="10" stroke-linecap="round" />
    <path d="M788.607 749.304H654.009C647.723 749.304 642.94 743.702 643.942 737.507L644.17 736.14L644.99 731.221L650.82 695.51C650.82 695.51 691.86 712.045 722.105 681.344C722.105 681.344 731.579 705.759 771.116 723.705C780.408 727.942 784.781 734.227 786.831 739.557C787.15 740.331 787.377 741.105 787.605 741.834C788.835 746.116 788.607 749.304 788.607 749.304Z" fill="#FFCF2D" />
    <path d="M787.603 741.789H654.006C650.681 741.789 647.538 740.331 645.397 737.781C644.942 737.234 644.532 736.687 644.213 736.095L645.033 731.176C645.169 733.043 645.898 734.865 647.174 736.323C648.904 738.327 651.41 739.512 654.052 739.512H786.874C787.147 740.286 787.42 741.06 787.603 741.789Z" fill="white" />
    <path d="M742.969 706.624C728.029 717.283 705.026 714.231 703.478 709.631C701.883 705.076 725.751 701.751 728.894 692.276C732.219 696.421 736.501 701.432 742.969 706.624Z" fill="white" />
    <path d="M621.297 545.288C621.297 491.768 635.418 460.703 635.418 460.703" stroke="#A15842" stroke-width="2.73297" stroke-miterlimit="10" stroke-linecap="round" />
    <path d="M492.119 377.531L305.184 421.486C281.498 427.043 264.782 448.178 264.782 472.501C264.782 511.173 305.275 536.544 340.075 519.645L520.952 431.826C524.049 430.323 526.509 427.681 527.739 424.447L547.781 373.021C548.6 370.972 546.87 368.785 544.638 369.104L541.449 369.56C536.393 370.288 531.838 373.067 528.878 377.257L520.724 389.465C519.221 391.697 516.716 393.017 514.028 393.017H494.943C491.071 393.017 488.293 389.237 489.477 385.547L492.119 377.531Z" fill="#EAA58B" />
    <path d="M490.3 377.986L305.187 421.941C281.501 427.498 264.784 448.633 264.784 472.956C264.784 511.628 305.278 536.999 340.077 520.1L520.954 432.281C524.052 430.778 526.511 428.136 527.741 424.902L547.783 373.477C548.603 371.427 546.872 369.24 544.64 369.559L541.452 370.015C536.396 370.743 531.841 373.522 528.88 377.713L520.727 389.92C519.223 392.152 516.718 393.473 514.031 393.473H493.124C489.252 393.473 486.473 389.692 487.658 386.003L490.3 377.986Z" stroke="#A15842" stroke-width="2.73297" stroke-miterlimit="10" />
    <path d="M497.681 408.048H525.603C530.203 408.048 534.394 405.543 536.626 401.489" stroke="#A15842" stroke-width="2.27747" stroke-miterlimit="10" stroke-linecap="round" />
    <path d="M491.305 424.446H519.227C523.827 424.446 528.018 421.941 530.249 417.887" stroke="#A15842" stroke-width="2.27747" stroke-miterlimit="10" stroke-linecap="round" />
    <path d="M1206.39 716.954C1206.39 726.244 1204.68 735.164 1201.53 743.437C1196.96 755.454 1185.36 763.311 1172.46 763.311H1074.62C1061.77 763.311 1050.12 755.454 1045.59 743.437C1042.45 735.164 1040.74 726.244 1040.74 716.954C1040.74 690.147 1054.93 666.483 1076.6 652.34V636.718C1076.6 643.558 1097.63 649.104 1123.52 649.104C1149.44 649.104 1170.43 643.558 1170.43 636.718V652.386C1192.2 666.483 1206.39 690.147 1206.39 716.954Z" fill="#93CAF4" />
    <path d="M1170.53 648.087V652.247C1163.09 658.163 1142.84 661.306 1123.61 661.306C1104.39 661.306 1084.14 658.163 1076.7 652.247V648.087C1077.58 650.075 1081.32 652.663 1089.64 654.835C1098.7 657.239 1110.77 658.533 1123.61 658.533C1136.46 658.533 1148.53 657.239 1157.59 654.835C1165.9 652.617 1169.6 650.029 1170.53 648.087Z" fill="white" />
    <path d="M1170.52 636.718C1170.52 643.558 1149.49 649.104 1123.61 649.104C1097.72 649.104 1076.69 643.558 1076.69 636.718C1076.69 635.839 1077.02 635.007 1077.67 634.176C1082.1 628.583 1100.96 624.331 1123.61 624.331C1146.25 624.331 1165.11 628.537 1169.55 634.176C1170.15 635.007 1170.52 635.839 1170.52 636.718Z" fill="#66B0F0" />
    <path d="M1060.8 697.311C1064.07 697.311 1066.71 694.662 1066.71 691.395C1066.71 688.128 1064.07 685.479 1060.8 685.479C1057.53 685.479 1054.88 688.128 1054.88 691.395C1054.88 694.662 1057.53 697.311 1060.8 697.311Z" stroke="#D6EDFF" stroke-width="3.35404" stroke-miterlimit="10" />
    <path d="M1080.86 711.87C1084.13 711.87 1086.78 709.221 1086.78 705.954C1086.78 702.687 1084.13 700.038 1080.86 700.038C1077.59 700.038 1074.95 702.687 1074.95 705.954C1074.95 709.221 1077.59 711.87 1080.86 711.87Z" stroke="#D6EDFF" stroke-width="3.35404" stroke-miterlimit="10" />
    <path d="M1105.82 694.584C1109.08 694.584 1111.73 691.935 1111.73 688.668C1111.73 685.4 1109.08 682.752 1105.82 682.752C1102.55 682.752 1099.9 685.4 1099.9 688.668C1099.9 691.935 1102.55 694.584 1105.82 694.584Z" stroke="#D6EDFF" stroke-width="3.35404" stroke-miterlimit="10" />
    <path d="M1102.31 733.87C1105.57 733.87 1108.22 731.221 1108.22 727.954C1108.22 724.687 1105.57 722.038 1102.31 722.038C1099.04 722.038 1096.39 724.687 1096.39 727.954C1096.39 731.221 1099.04 733.87 1102.31 733.87Z" stroke="#D6EDFF" stroke-width="3.35404" stroke-miterlimit="10" />
    <path d="M1080.12 751.11C1083.39 751.11 1086.04 748.461 1086.04 745.194C1086.04 741.927 1083.39 739.278 1080.12 739.278C1076.86 739.278 1074.21 741.927 1074.21 745.194C1074.21 748.461 1076.86 751.11 1080.12 751.11Z" stroke="#D6EDFF" stroke-width="3.35404" stroke-miterlimit="10" />
    <path d="M1057.75 733.87C1061.02 733.87 1063.67 731.221 1063.67 727.954C1063.67 724.687 1061.02 722.038 1057.75 722.038C1054.48 722.038 1051.84 724.687 1051.84 727.954C1051.84 731.221 1054.48 733.87 1057.75 733.87Z" stroke="#D6EDFF" stroke-width="3.35404" stroke-miterlimit="10" />
    <path d="M1084.1 675.357C1087.36 675.357 1090.01 672.708 1090.01 669.441C1090.01 666.173 1087.36 663.525 1084.1 663.525C1080.83 663.525 1078.18 666.173 1078.18 669.441C1078.18 672.708 1080.83 675.357 1084.1 675.357Z" stroke="#D6EDFF" stroke-width="3.35404" stroke-miterlimit="10" />
    <path d="M1131.19 679.84C1134.46 679.84 1137.11 677.191 1137.11 673.924C1137.11 670.657 1134.46 668.008 1131.19 668.008C1127.92 668.008 1125.28 670.657 1125.28 673.924C1125.28 677.191 1127.92 679.84 1131.19 679.84Z" stroke="#D6EDFF" stroke-width="3.35404" stroke-miterlimit="10" />
    <path d="M1126.25 715.706C1129.52 715.706 1132.17 713.057 1132.17 709.79C1132.17 706.522 1129.52 703.874 1126.25 703.874C1122.98 703.874 1120.33 706.522 1120.33 709.79C1120.33 713.057 1122.98 715.706 1126.25 715.706Z" stroke="#D6EDFF" stroke-width="3.35404" stroke-miterlimit="10" />
    <path d="M1143.35 739.277C1146.62 739.277 1149.27 736.629 1149.27 733.361C1149.27 730.094 1146.62 727.445 1143.35 727.445C1140.08 727.445 1137.44 730.094 1137.44 733.361C1137.44 736.629 1140.08 739.277 1143.35 739.277Z" stroke="#D6EDFF" stroke-width="3.35404" stroke-miterlimit="10" />
    <path d="M1121.16 757.026C1124.43 757.026 1127.08 754.377 1127.08 751.11C1127.08 747.842 1124.43 745.193 1121.16 745.193C1117.89 745.193 1115.24 747.842 1115.24 751.11C1115.24 754.377 1117.89 757.026 1121.16 757.026Z" stroke="#D6EDFF" stroke-width="3.35404" stroke-miterlimit="10" />
    <path d="M1149.68 701.563C1152.94 701.563 1155.59 698.914 1155.59 695.647C1155.59 692.38 1152.94 689.731 1149.68 689.731C1146.41 689.731 1143.76 692.38 1143.76 695.647C1143.76 698.914 1146.41 701.563 1149.68 701.563Z" stroke="#D6EDFF" stroke-width="3.35404" stroke-miterlimit="10" />
    <path d="M1166.83 677.298C1170.1 677.298 1172.75 674.65 1172.75 671.382C1172.75 668.115 1170.1 665.466 1166.83 665.466C1163.56 665.466 1160.91 668.115 1160.91 671.382C1160.91 674.65 1163.56 677.298 1166.83 677.298Z" stroke="#D6EDFF" stroke-width="3.35404" stroke-miterlimit="10" />
    <path d="M1186.34 696.941C1189.6 696.941 1192.25 694.292 1192.25 691.025C1192.25 687.758 1189.6 685.109 1186.34 685.109C1183.07 685.109 1180.42 687.758 1180.42 691.025C1180.42 694.292 1183.07 696.941 1186.34 696.941Z" stroke="#D6EDFF" stroke-width="3.35404" stroke-miterlimit="10" />
    <path d="M1164.01 716.307C1167.28 716.307 1169.92 713.658 1169.92 710.391C1169.92 707.123 1167.28 704.475 1164.01 704.475C1160.74 704.475 1158.09 707.123 1158.09 710.391C1158.09 713.658 1160.74 716.307 1164.01 716.307Z" stroke="#D6EDFF" stroke-width="3.35404" stroke-miterlimit="10" />
    <path d="M1190.72 728.693C1193.99 728.693 1196.64 726.045 1196.64 722.777C1196.64 719.51 1193.99 716.861 1190.72 716.861C1187.45 716.861 1184.81 719.51 1184.81 722.777C1184.81 726.045 1187.45 728.693 1190.72 728.693Z" stroke="#D6EDFF" stroke-width="3.35404" stroke-miterlimit="10" />
    <path d="M1172.74 751.433C1176.01 751.433 1178.66 748.784 1178.66 745.517C1178.66 742.25 1176.01 739.601 1172.74 739.601C1169.48 739.601 1166.83 742.25 1166.83 745.517C1166.83 748.784 1169.48 751.433 1172.74 751.433Z" stroke="#D6EDFF" stroke-width="3.35404" stroke-miterlimit="10" />
    <path d="M1227.23 564.708C1227.23 564.708 1271.14 540.998 1278.4 582.41C1286.81 630.247 1229.68 672.352 1229.68 672.352C1229.68 672.352 1217.39 641.894 1184.43 615.641C1155.92 592.948 1179.58 532.771 1227.23 564.708Z" fill="white" stroke="#FFCF2D" stroke-width="3.35404" stroke-miterlimit="10" />
    <path d="M1141.03 511.972C1161.88 512.157 1191.83 469.82 1163.54 423.37C1129.38 367.26 1123.51 334.768 1123.51 334.768C1123.51 334.768 1073.27 401.231 1081.83 452.211C1091.21 508.043 1141.03 511.972 1141.03 511.972Z" fill="#FFCF2D" />
    <path d="M1144.64 483.779C1175.09 491.821 1204.03 473.287 1204.63 431.043C1205.69 356.353 1219.83 332.042 1219.83 332.042C1219.83 332.042 1124.95 366.198 1110.57 419.257C1096.89 469.821 1144.64 483.779 1144.64 483.779Z" fill="white" stroke="#FFCF2D" stroke-width="3.35404" stroke-miterlimit="10" />
    <path d="M1017.35 532.956C1016.24 533.048 1015.08 533.14 1013.84 533.233C948.298 538.132 929.441 598.124 929.441 598.124C929.441 598.124 925.42 593.78 926.252 578.759C927.823 540.027 963.458 500.001 1004.13 525.422C1008.66 528.287 1013.1 530.737 1017.35 532.956Z" fill="#FFCF2D" />
    <path d="M1091.67 547.7C1080.12 548.439 1053.72 551.628 1017.35 532.956C1013.1 530.783 1008.66 528.288 1004.13 525.422C963.459 500.002 928.748 540.027 927.177 578.759C927.084 580.654 927.546 582.549 927.639 584.397C923.803 550.75 923.895 467.001 1025.72 469.821C1095.69 471.854 1091.67 547.7 1091.67 547.7Z" fill="white" stroke="#FFCF2D" stroke-width="3.35404" stroke-miterlimit="10" />
    <path d="M1108.31 634.268C1108.31 634.268 1120.37 466.169 957.357 488.123" stroke="#FFCF2D" stroke-width="3.35404" stroke-miterlimit="10" />
    <path d="M1219.83 332.042C1117.13 436.959 1136.27 634.268 1136.27 634.268C1125.45 558.792 1191.82 483.779 1227.18 562.721C1237.72 586.2 1229.63 672.306 1229.63 672.306" stroke="#FFCF2D" stroke-width="3.35404" stroke-miterlimit="10" />
</svg>
    