<?xml version="1.0"?>
<svg xmlns="http://www.w3.org/2000/svg" xmlns:xlink="http://www.w3.org/1999/xlink" xmlns:svgjs="http://svgjs.com/svgjs" version="1.1" width="512" height="512" x="0" y="0" viewBox="0 0 256 256" style="enable-background:new 0 0 512 512" xml:space="preserve" class=""><g><g xmlns="http://www.w3.org/2000/svg"><g><path d="m63.717 48.275c-9.212 0-16.68 7.468-16.68 16.68v47.024c9.212 0 16.68-7.468 16.68-16.68z" fill="#5b5b5b" data-original="#5b5b5b" style=""/><circle cx="75.729" cy="57.099" fill="#5b5b5b" r="18.791" data-original="#5b5b5b" style=""/><path d="m144.262 197.306h-99.485v-56.345c0-14.824 12.018-26.842 26.842-26.842h45.801c14.824 0 26.842 12.018 26.842 26.842z" fill="#71c043" data-original="#f46275" style="" class=""/><path d="m86.286 114.118h-14.667c-14.824 0-26.842 12.018-26.842 26.842v56.345h14.667v-56.345c0-14.824 12.018-26.842 26.842-26.842z" fill="#79ea38" data-original="#f43075" style="" class=""/><path d="m98.6 123.869h-8.16c-2.641 0-4.782-2.141-4.782-4.782v-23.733c0-2.641 2.141-4.782 4.782-4.782h8.16c2.641 0 4.782 2.141 4.782 4.782v23.733c0 2.641-2.141 4.782-4.782 4.782z" fill="#f8af23" data-original="#f8af23" style="" class=""/><path d="m90.44 90.571c-2.641 0-4.782 2.141-4.782 4.782v23.733c0 2.641 2.141 4.782 4.782 4.782h.337v-33.297z" fill="#f87023" data-original="#f87023" style=""/><path d="m103.382 119.087v-23.733c0-2.641-2.141-4.782-4.782-4.782h-7.823v33.298h7.823c2.641 0 4.782-2.142 4.782-4.783z" fill="#f8af23" data-original="#f8af23" style="" class=""/><g><circle cx="66.039" cy="75.89" fill="#f87023" r="7.453" data-original="#f87023" style=""/><circle cx="119.806" cy="75.89" fill="#f8af23" r="7.453" data-original="#f8af23" style="" class=""/></g><path d="m94.52 108.825c-14.959 0-27.086-12.127-27.086-27.086v-9.987c0-14.959 12.127-27.086 27.086-27.086 14.959 0 27.086 12.127 27.086 27.086v9.987c-.001 14.96-12.127 27.086-27.086 27.086z" fill="#f8af23" data-original="#f8af23" style="" class=""/><path d="m82.101 81.74v-9.987c0-12.416 8.358-22.874 19.752-26.073-2.333-.655-4.791-1.013-7.333-1.013-14.959 0-27.086 12.127-27.086 27.086v9.987c0 14.959 12.127 27.086 27.086 27.086 2.543 0 5-.358 7.333-1.013-11.394-3.199-19.752-13.657-19.752-26.073z" fill="#f87023" data-original="#f87023" style=""/><g fill="#3f3679"><circle cx="86.373" cy="84.483" r="2.623" fill="#3f3679" data-original="#3f3679" style="" class=""/><circle cx="107.912" cy="84.483" r="2.623" fill="#3f3679" data-original="#3f3679" style="" class=""/></g><path d="m85.657 111.979 8.863 11.89-11.006 7.458-3.14-17.221z" fill="#71c043" data-original="#f46275" style="" class=""/><path d="m103.382 111.979-8.862 11.89 11.005 7.458 3.141-17.221z" fill="#71c043" data-original="#f46275" style="" class=""/><path d="m98.023 134.315 4.795-4.823-8.298-5.623-8.298 5.623 4.795 4.823-5.983 32.669 9.486 12.612 9.486-12.612z" fill="#cecece" data-original="#cecece" style="" class=""/><path d="m67.434 75.89h4.84l8.1-13.638s9.958 10.895 41.231 10.895v-9.23c0-14.959-12.127-27.086-27.086-27.086-14.959 0-27.086 12.127-27.086 27.086v11.973z" fill="#707070" data-original="#707070" style="" class=""/><path d="m101.853 37.844c-2.333-.655-4.791-1.013-7.333-1.013-14.959 0-27.086 12.127-27.086 27.086v11.973h4.84l8.1-13.638s.537.582 1.732 1.471c.086-12.33 8.412-22.697 19.747-25.879z" fill="#5b5b5b" data-original="#5b5b5b" style=""/></g><path d="m30.638 166.441h194.723v17.71h-194.723z" fill="#cecece" data-original="#cecece" style="" class=""/><g><path d="m30.638 166.441h14.667v17.71h-14.667z" fill="#afafaf" data-original="#afafaf" style="" class=""/></g><g><path d="m210.695 166.441h14.667v17.71h-14.667z" fill="#e2e2e2" data-original="#e2e2e2" style="" class=""/></g><path d="m40.873 184.151h174.254v50.258h-174.254z" fill="#cecece" data-original="#cecece" style="" class=""/><g><path d="m40.873 184.151h14.667v50.258h-14.667z" fill="#afafaf" data-original="#afafaf" style="" class=""/></g><path d="m210.129 82.22c16.38-16.38 16.38-42.937 0-59.317s-42.937-16.38-59.317 0c-13.913 13.913-16.001 35.165-6.28 51.289l-1.679 15.987 15.987-1.679c16.125 9.721 37.376 7.632 51.289-6.28z" fill="#cecece" data-original="#cecece" style="" class=""/><path d="m210.129 22.899c-10.063-10.063-23.966-13.933-36.992-11.631 8.177 1.445 16.008 5.315 22.325 11.631 16.38 16.38 16.38 42.937 0 59.317-6.318 6.318-14.151 10.189-22.328 11.631 13.026 2.305 26.93-1.567 36.995-11.631 16.38-16.379 16.38-42.937 0-59.317z" fill="#e2e2e2" data-original="#e2e2e2" style="" class=""/><g><circle cx="166.691" cy="146.242" fill="#707070" r="33.821" data-original="#707070" style="" class=""/><path d="m166.691 112.421c-2.519 0-4.971.284-7.333.807 15.152 3.351 26.488 16.855 26.488 33.015s-11.336 29.664-26.488 33.015c2.362.522 4.814.807 7.333.807 18.679 0 33.821-15.142 33.821-33.821 0-18.681-15.142-33.823-33.821-33.823z" fill="#9e9e9e" data-original="#9e9e9e" style="" class=""/><path d="m215.127 234.41h-96.872v-19.857c0-19.048 15.442-34.49 34.49-34.49h27.892c19.048 0 34.49 15.442 34.49 34.49z" fill="#1e73b1" data-original="#63bce7" style="" class=""/><g><path d="m180.637 180.063h-14.667c19.048 0 34.49 15.442 34.49 34.49v19.857h14.667v-19.857c0-19.048-15.442-34.49-34.49-34.49z" fill="#63e2e7" data-original="#63e2e7" style="" class=""/></g></g><g><path d="m197.503 45.15c0-9.406-7.625-17.03-17.03-17.03-9.406 0-17.03 7.625-17.03 17.03 0 4.98 2.138 9.46 5.546 12.574v7.795c0 6.343 5.142 11.484 11.484 11.484 6.343 0 11.485-5.142 11.485-11.484v-7.795c3.407-3.114 5.545-7.594 5.545-12.574z" fill="#f8af23" data-original="#f8af23" style="" class=""/><path d="m168.988 65.519c0 6.343 5.142 11.484 11.484 11.484 6.343 0 11.485-5.142 11.485-11.484v-1.522h-22.969z" fill="#cecece" data-original="#cecece" style="" class=""/><g><circle cx="180.473" cy="45.683" fill="#f8af23" r="6.879" data-original="#f8af23" style="" class=""/><g fill="#3f3679"><path d="m27.323 243.883h-18.003c-.829 0-1.5.671-1.5 1.5s.671 1.5 1.5 1.5h18.003c.829 0 1.5-.671 1.5-1.5s-.671-1.5-1.5-1.5z" fill="#3f3679" data-original="#3f3679" style="" class=""/><path d="m246.68 243.883h-18.003c-.829 0-1.5.671-1.5 1.5s.671 1.5 1.5 1.5h18.003c.829 0 1.5-.671 1.5-1.5s-.671-1.5-1.5-1.5z" fill="#3f3679" data-original="#3f3679" style="" class=""/><path d="m218.479 243.883h-180.958c-.829 0-1.5.671-1.5 1.5s.671 1.5 1.5 1.5h180.959c.829 0 1.5-.671 1.5-1.5s-.672-1.5-1.501-1.5z" fill="#3f3679" data-original="#3f3679" style="" class=""/><path d="m9.32 235.91h31.553 77.382 96.872 31.553c.829 0 1.5-.671 1.5-1.5s-.671-1.5-1.5-1.5h-30.053v-18.357-28.901h8.734c.829 0 1.5-.671 1.5-1.5v-17.71c0-.829-.671-1.5-1.5-1.5h-28.725c3.401-5.427 5.376-11.835 5.376-18.699 0-19.476-15.845-35.321-35.321-35.321-10.807 0-20.49 4.884-26.975 12.554-5.358-6.819-13.588-10.856-22.296-10.856h-8.432l-4.106-1.653v-2.592c9.905-3.867 17.138-13.102 18.106-24.113 3.432-1.307 5.771-4.65 5.771-8.37 0-3.698-2.252-6.973-5.654-8.319v-3.654c0-15.762-12.824-28.585-28.586-28.585-4.285 0-8.349.954-12.001 2.651-.028-.012-.053-.028-.082-.038-2.151-.754-4.408-1.136-6.708-1.136-7.832 0-14.628 4.468-18.009 10.981-7.288 2.546-12.183 9.438-12.183 17.165v47.024c0 .829.671 1.5 1.5 1.5 10.024 0 18.18-8.155 18.18-18.18v-10.499c.271.025.544.042.822.042.022 0 .044-.004.066-.005 1.165 10.756 8.321 19.735 18.052 23.535v2.592l-4.106 1.654c-.001 0-.002 0-.003 0h-8.427c-15.628 0-28.342 12.714-28.342 28.342v23.98h-12.639c-.829 0-1.5.671-1.5 1.5v17.71c0 .829.671 1.5 1.5 1.5h8.734v47.258h-30.053c-.829 0-1.5.671-1.5 1.5s.671 1.5 1.5 1.5zm110.435-3v-18.357c0-18.19 14.799-32.99 32.99-32.99h27.892c18.191 0 32.99 14.799 32.99 32.99v18.357zm93.872-32.722c-2.534-5.798-6.549-10.806-11.57-14.537h11.57zm10.234-32.247v14.71h-8.734-17.25-.568c-.012 0-.023.003-.035.004-4.907-2.57-10.474-4.043-16.377-4.085 5.38-2.373 10.056-6.05 13.633-10.629zm-57.17-54.021c17.822 0 32.321 14.499 32.321 32.321s-14.499 32.321-32.321 32.321-32.321-14.499-32.321-32.321 14.499-32.321 32.321-32.321zm-56.777 1.699h7.506c8.042 0 15.625 3.852 20.397 10.316-4.056 5.749-6.448 12.752-6.448 20.307 0 6.864 1.975 13.272 5.376 18.699h-7.245v-17.699c0-.829-.671-1.5-1.5-1.5s-1.5.671-1.5 1.5v17.699h-21.343l-5.517-30.125 3.366-3.385 1.679 1.137c.252.171.546.258.841.258.197 0 .394-.039.581-.117.467-.196.804-.616.895-1.114zm-17.833 17.638-3.518-3.539 5.958-4.037 5.957 4.037-3.518 3.539c-.346.349-.5.845-.412 1.328l5.559 30.356h-15.174l5.559-30.356c.089-.483-.065-.979-.411-1.328zm12.381-4.463-7.802-5.287 7.234-9.706 3.076 1.239zm21.297-52.904c0 2.016-1.037 3.859-2.654 4.945v-7.687-1.395-.804c1.627 1.084 2.654 2.912 2.654 4.941zm-31.239-37.558c14.108 0 25.585 11.478 25.585 25.585v7.722c-14.875-.173-24.499-2.907-30.005-5.213-6.133-2.568-8.601-5.165-8.619-5.186-.321-.351-.786-.528-1.261-.48-.472.048-.894.318-1.136.726l-7.664 12.904h-2.486v-2.637-3.201c0-.005 0-.011 0-.016v-4.619c0-14.108 11.478-25.585 25.586-25.585zm-18.791 1.476c1.026 0 2.041.094 3.039.271-7.727 5.123-12.834 13.893-12.834 23.838v3.025c-1.343.016-2.612.333-3.752.88-2.41-3.043-3.744-6.828-3.744-10.723 0-9.534 7.757-17.291 17.291-17.291zm-13.512 55.491c0 7.864-6.011 14.35-13.68 15.106v-45.45c0-5.503 2.979-10.492 7.629-13.161-.46 1.695-.728 3.468-.728 5.306 0 4.514 1.529 8.899 4.29 12.448-1.631 1.622-2.642 3.867-2.642 6.343 0 3.569 2.104 6.647 5.131 8.084zm-2.132-19.409c0-3.247 2.614-5.891 5.849-5.948v1.811 4.137 5.85c0 .033.002.065.003.098-3.236-.055-5.852-2.7-5.852-5.948zm8.849 5.85v-4.35h3.34c.529 0 1.02-.279 1.29-.734l7.175-12.08c3.734 2.945 15.015 9.785 39.367 10.058v7.105c0 14.108-11.478 25.586-25.586 25.586s-25.586-11.477-25.586-25.585zm25.586 28.586c2.545 0 5.012-.339 7.362-.966v2.121l-7.362 9.879-7.363-9.879v-2.122c2.351.628 4.818.967 7.363.967zm-9.374 3.476 7.234 9.706-7.803 5.287-2.508-13.754zm-38.869 27.158c0-13.974 11.369-25.342 25.342-25.342h7.506l2.913 15.977c.091.499.428.918.895 1.114.187.078.384.117.581.117.295 0 .589-.087.841-.258l1.679-1.137 3.366 3.385-5.517 30.125h-21.343v-17.699c0-.829-.671-1.5-1.5-1.5s-1.5.671-1.5 1.5v17.699h-13.263zm-14.138 26.981h106.713c3.577 4.579 8.253 8.255 13.633 10.629-5.998.043-11.651 1.56-16.615 4.208-.184-.08-.386-.126-.599-.126h-.175-94.223-8.734zm10.234 17.71h88.952c-8.834 6.564-14.57 17.075-14.57 28.901v18.357h-74.382z" fill="#3f3679" data-original="#3f3679" style="" class=""/><path d="m97.867 92.997c.829 0 1.5-.671 1.5-1.5v-4.391c0-.829-.671-1.5-1.5-1.5s-1.5.671-1.5 1.5v4.391c0 .828.672 1.5 1.5 1.5z" fill="#3f3679" data-original="#3f3679" style="" class=""/><path d="m103.011 99.371c.546-.623.484-1.57-.139-2.117-.623-.546-1.57-.484-2.117.139-.733.835-1.786 1.315-2.888 1.315s-2.155-.479-2.888-1.315c-.547-.624-1.494-.686-2.117-.139-.623.546-.685 1.494-.139 2.117 1.302 1.485 3.177 2.337 5.144 2.337s3.842-.852 5.144-2.337z" fill="#3f3679" data-original="#3f3679" style="" class=""/><path d="m90.813 76.935h-7.433c-.829 0-1.5.671-1.5 1.5s.671 1.5 1.5 1.5h7.433c.829 0 1.5-.671 1.5-1.5s-.671-1.5-1.5-1.5z" fill="#3f3679" data-original="#3f3679" style="" class=""/><path d="m104.921 79.935h7.433c.829 0 1.5-.671 1.5-1.5s-.671-1.5-1.5-1.5h-7.433c-.829 0-1.5.671-1.5 1.5s.671 1.5 1.5 1.5z" fill="#3f3679" data-original="#3f3679" style="" class=""/><path d="m141.361 90.022c-.047.45.111.897.431 1.217.319.319.766.479 1.217.431l15.491-1.627c6.854 4.025 14.438 5.989 21.972 5.989 11.217 0 22.322-4.357 30.717-12.752 16.938-16.939 16.938-44.5 0-61.438s-44.5-16.938-61.438 0c-14.034 14.034-16.782 35.63-6.763 52.688zm10.512-66.059c15.77-15.769 41.427-15.769 57.196 0s15.769 41.427 0 57.196c-13.177 13.176-33.513 15.667-49.455 6.056-.234-.142-.502-.215-.774-.215-.052 0-.104.003-.157.008l-14.145 1.486 1.486-14.146c.034-.325-.039-.652-.207-.931-9.611-15.941-7.121-36.277 6.056-49.454z" fill="#3f3679" data-original="#3f3679" style="" class=""/><path d="m167.488 65.519c0 7.16 5.825 12.984 12.984 12.984s12.985-5.825 12.985-12.984v-7.15c3.532-3.474 5.545-8.253 5.545-13.219 0-10.218-8.313-18.53-18.53-18.53s-18.53 8.313-18.53 18.53c0 4.966 2.013 9.746 5.546 13.219zm12.985 9.984c-5.505 0-9.984-4.479-9.984-9.984v-.022h19.969v.022c0 5.505-4.479 9.984-9.985 9.984zm0-24.441c-2.966 0-5.378-2.413-5.378-5.378s2.413-5.379 5.378-5.379 5.379 2.413 5.379 5.379-2.414 5.378-5.379 5.378zm-15.531-5.912c0-8.563 6.967-15.53 15.53-15.53s15.53 6.967 15.53 15.53c0 4.35-1.843 8.529-5.058 11.467-.311.284-.488.686-.488 1.107v4.773h-8.485v-8.577c3.906-.71 6.879-4.129 6.879-8.236 0-4.62-3.759-8.379-8.379-8.379s-8.378 3.759-8.378 8.379c0 4.107 2.973 7.526 6.878 8.236v8.578h-8.484v-4.773c0-.421-.177-.823-.488-1.107-3.213-2.939-5.057-7.118-5.057-11.468z" fill="#3f3679" data-original="#3f3679" style="" class=""/></g></g></g></g></g></svg>
