<!--?xml version="1.0" standalone="no"?--><svg version="1.0" xmlns="http://www.w3.org/2000/svg" width="297.000000pt" height="300.000000pt" viewBox="0 0 297.000000 300.000000" preserveAspectRatio="xMidYMid meet">
<metadata>
  <rdf:rdf xmlns:rdf="http://www.w3.org/1999/02/22-rdf-syntax-ns#" xmlns:rdfs="http://www.w3.org/2000/01/rdf-schema#" xmlns:dc="http://purl.org/dc/elements/1.1/">
    <rdf:description dc:title="science things" dc:publisher="Hiox" dc:date="2015-03-25" dc:format="image/svg+xml" dc:language="en">
      <dc:creator>
        <rdf:bag>
          <rdf:li>svgimages.com</rdf:li>
        </rdf:bag>
      </dc:creator>
    </rdf:description>
  </rdf:rdf>
</metadata>
<g transform="translate(0.000000,300.000000) scale(0.100000,-0.100000)" fill="#242422" stroke="none">
<path d="M1095 2931 c-70 -17 -134 -70 -157 -130 -10 -26 -48 -230 -48 -257 0
-12 43 -14 240 -14 l240 0 0 38 c-1 53 -25 212 -38 243 -32 81 -151 140 -237
120z m151 -191 c51 0 54 -1 54 -25 0 -66 -57 -136 -125 -154 -54 -14 -110 2
-151 43 -32 32 -61 107 -48 127 4 6 39 10 88 9 113 -3 116 -2 117 18 1 16 2
16 6 0 4 -14 15 -18 59 -18z" id="node1" class="node" stroke-width="20"></path>
<path d="M1020 2685 l0 -35 54 0 c49 0 55 2 59 23 l4 22 2 -23 c1 -22 5 -23
59 -20 56 3 57 3 60 35 l3 32 -120 0 -121 0 0 -34z m90 0 c0 -10 -11 -15 -35
-15 -24 0 -35 5 -35 15 0 10 11 15 35 15 24 0 35 -5 35 -15z m130 0 c0 -11
-11 -15 -40 -15 -29 0 -40 4 -40 15 0 11 11 15 40 15 29 0 40 -4 40 -15z" id="node2" class="node" stroke-width="20"></path>
<path d="M1100 2604 c0 -11 9 -14 37 -12 52 4 56 28 4 28 -30 0 -41 -4 -41
-16z" id="node3" class="node" stroke-width="20"></path>
<path d="M348 2901 c-98 -39 -157 -107 -179 -206 -10 -43 -9 -61 6 -110 14
-48 28 -69 78 -119 l62 -60 4 -73 3 -73 124 0 124 0 0 60 0 60 53 0 c29 0 58
5 65 12 7 7 12 35 12 63 0 28 5 56 11 62 8 8 7 25 -4 61 -8 28 -11 56 -6 64 5
8 4 32 -2 53 -8 28 -8 44 2 62 11 21 9 27 -18 61 -16 20 -52 51 -78 67 -42 26
-59 30 -129 33 -60 1 -93 -3 -128 -17z m151 -79 c91 -67 92 -189 2 -249 -25
-17 -48 -23 -88 -23 -49 0 -58 4 -95 38 -37 35 -42 45 -45 93 -5 70 18 115 78
147 50 27 106 24 148 -6z" id="node4" class="node" stroke-width="20"></path>
<path d="M369 2779 c-15 -15 -18 -24 -10 -32 8 -8 17 -5 32 12 12 12 28 20 36
17 8 -3 17 -6 19 -6 12 0 1 -47 -15 -64 -24 -26 -30 -57 -13 -63 6 -3 12 1 12
7 0 7 11 25 25 42 14 16 25 40 25 52 0 52 -72 74 -111 35z" id="node5" class="node" stroke-width="20"></path>
<path d="M407 2624 c-13 -13 -7 -24 14 -24 11 0 19 5 17 12 -5 14 -22 21 -31
12z" id="node6" class="node" stroke-width="20"></path>
<path d="M2262 2834 c-21 -15 -22 -21 -22 -187 0 -136 3 -177 15 -194 14 -20
12 -23 -30 -54 -33 -26 -44 -41 -45 -62 l0 -27 368 2 367 3 3 22 c2 16 -9 31
-47 59 -46 34 -49 40 -36 54 12 13 15 51 15 193 0 170 -1 176 -22 191 -19 14
-63 16 -283 16 -220 0 -264 -2 -283 -16z m536 -198 l3 -146 -251 0 -250 0 0
148 0 147 248 -1 247 -1 3 -147z" id="node7" class="node" stroke-width="20"></path>
<path d="M2333 2654 c-2 -7 -3 -29 -1 -50 3 -38 4 -39 42 -39 46 0 64 24 19
26 -23 1 -24 2 -5 6 12 2 22 11 22 18 0 7 -10 16 -22 18 -20 4 -19 4 5 6 42 2
32 18 -14 23 -26 2 -43 -1 -46 -8z" id="node8" class="node" stroke-width="20"></path>
<path d="M2735 2660 c-3 -5 -1 -10 6 -10 9 0 9 -4 -1 -15 -9 -11 -16 -12 -31
-2 -36 22 -76 -25 -49 -58 16 -19 44 -19 60 0 11 13 8 15 -14 15 -17 0 -26 5
-26 16 0 10 5 14 15 10 8 -3 28 -3 43 0 20 4 28 12 30 30 2 24 -21 34 -33 14z" id="node9" class="node" stroke-width="20"></path>
<path d="M2430 2630 c0 -5 16 -10 35 -10 19 0 35 5 35 10 0 6 -16 10 -35 10
-19 0 -35 -4 -35 -10z" id="node10" class="node" stroke-width="20"></path>
<path d="M2520 2598 c0 -47 23 -48 29 -2 l4 29 6 -29 c8 -38 31 -47 31 -12 0
14 5 26 10 26 6 0 10 -12 10 -26 0 -16 5 -24 13 -21 6 2 12 19 12 38 l0 34
-57 1 -58 1 0 -39z" id="node11" class="node" stroke-width="20"></path>
<path d="M2430 2600 c0 -5 16 -10 35 -10 19 0 35 5 35 10 0 6 -16 10 -35 10
-19 0 -35 -4 -35 -10z" id="node12" class="node" stroke-width="20"></path>
<path d="M1703 2801 c-82 -24 -168 -77 -204 -125 -63 -86 -16 -226 76 -226
l31 0 -16 65 c-9 36 -22 71 -28 77 -19 19 -14 33 6 15 17 -16 20 -15 49 6 25
18 29 26 22 40 -11 19 5 25 17 6 3 -6 14 -8 23 -5 100 32 126 45 125 60 -2 23
13 20 19 -4 3 -13 10 -18 21 -14 9 3 16 1 16 -4 0 -6 -17 -12 -37 -14 -30 -2
-37 -7 -35 -20 4 -22 -7 -23 -22 -2 -10 13 -19 12 -71 -16 -33 -17 -68 -39
-77 -47 -34 -30 -15 -115 35 -161 34 -32 89 -43 162 -32 l60 9 31 -36 c24 -27
36 -34 52 -29 19 6 21 13 16 49 l-6 42 47 19 c26 10 65 36 86 56 33 31 39 44
39 76 0 52 -43 111 -113 157 -110 72 -215 91 -324 58z m167 -35 c38 -1 60 -11
60 -28 0 -7 -5 -6 -15 2 -8 7 -25 10 -40 6 -14 -4 -35 -2 -46 4 -15 8 -30 8
-57 -1 -20 -7 -53 -11 -72 -10 -29 2 -38 -2 -49 -22 -14 -27 -89 -53 -104 -38
-5 5 10 12 32 16 30 5 48 15 64 37 19 26 26 29 58 24 23 -4 50 0 70 9 19 8 41
11 49 8 8 -4 31 -7 50 -7z m150 -101 c0 -3 -17 -20 -37 -40 -36 -32 -42 -34
-106 -35 -50 0 -86 -7 -133 -26 -69 -27 -98 -27 -45 1 18 9 30 19 27 23 -2 4
12 8 32 8 60 0 92 12 92 34 0 11 5 20 10 20 6 0 10 -9 10 -20 0 -33 62 -27
102 10 31 27 48 37 48 25z m22 -118 c-16 -17 -30 -22 -52 -19 -19 3 -42 -4
-65 -18 -29 -18 -42 -20 -73 -13 -26 7 -46 5 -69 -4 -18 -7 -33 -9 -33 -4 0
16 67 32 104 25 26 -4 43 -1 61 10 13 9 42 16 63 16 26 0 45 7 57 20 10 11 21
18 23 15 3 -3 -4 -16 -16 -28z" id="node13" class="node" stroke-width="20"></path>
<path d="M993 2491 c-53 -38 -87 -84 -107 -144 -32 -94 -52 -87 249 -87 l266
0 -6 38 c-16 91 -93 195 -161 216 -18 5 -23 1 -29 -21 -10 -42 -34 -63 -71
-63 -39 0 -74 32 -74 67 0 31 -19 29 -67 -6z" id="node14" class="node" stroke-width="20"></path>
<path d="M2620 2208 c-17 -26 -20 -45 -18 -89 l4 -56 -55 1 c-106 0 -161 -53
-161 -156 l0 -58 -52 0 c-59 0 -123 -26 -123 -50 0 -9 9 -15 22 -15 30 0 145
-113 138 -136 -3 -10 1 -19 10 -23 26 -10 55 50 55 114 l0 55 58 0 c102 1 151
50 158 158 2 44 7 61 16 59 36 -10 98 -3 127 14 35 21 38 49 4 49 -30 0 -143
112 -140 138 3 33 -21 30 -43 -5z m99 -92 c54 -55 60 -64 43 -68 -15 -4 -35 9
-75 51 -47 48 -63 81 -38 81 3 0 35 -29 70 -64z m-44 -31 c19 -20 35 -37 35
-39 0 -6 -44 6 -56 16 -11 8 -26 58 -18 58 2 0 19 -16 39 -35z m-62 -179 c-7
-13 -19 -6 -68 44 -49 49 -57 62 -45 70 22 14 126 -91 113 -114z m-9 105 c10
-11 16 -28 14 -39 -3 -17 -8 -14 -42 19 -38 38 -38 39 -14 39 14 0 33 -9 42
-19z m-16 -148 c-9 -12 -24 -1 -79 53 -54 54 -66 71 -57 81 9 12 24 1 79 -53
54 -54 66 -71 57 -81z m-44 -26 c-23 -13 -128 91 -118 117 6 15 17 8 70 -45
53 -53 61 -65 48 -72z m-74 28 c33 -34 33 -35 10 -35 -29 0 -60 27 -60 52 0
26 12 22 50 -17z m-118 -102 c42 -42 62 -83 40 -83 -14 0 -123 116 -116 123
14 14 29 6 76 -40z m35 35 c6 -7 13 -24 16 -37 5 -22 3 -22 -31 10 -20 19 -39
35 -41 37 -2 1 7 2 21 2 14 0 30 -6 35 -12z" id="node15" class="node" stroke-width="20"></path>
<path d="M1946 2169 c-32 -25 -35 -70 -6 -99 41 -41 110 -13 110 43 0 38 -7
50 -37 66 -30 15 -36 14 -67 -10z" id="node16" class="node" stroke-width="20"></path>
<path d="M440 2148 c-35 -13 -59 -37 -82 -81 -17 -33 -23 -38 -44 -33 -46 12
-102 -12 -134 -56 -37 -50 -37 -61 -3 -92 l27 -25 -22 -24 c-12 -12 -27 -38
-33 -56 -10 -28 -9 -37 8 -59 24 -33 80 -62 133 -69 43 -6 47 -12 28 -43 -15
-24 -1 -53 28 -58 10 -2 30 -14 44 -27 65 -61 130 -49 181 33 30 49 32 50 80
50 90 0 130 48 104 126 -15 43 -15 46 10 82 32 47 33 93 2 122 -25 24 -97 52
-132 52 -17 0 -26 10 -39 43 -33 87 -99 136 -156 115z m98 -63 c27 -23 60 -80
51 -90 -13 -12 -110 -6 -152 10 -26 10 -47 20 -47 22 0 28 67 83 102 83 9 0
30 -11 46 -25z m-216 -114 c-15 -48 -23 -55 -95 -89 -4 -2 -2 8 4 22 11 23 9
29 -12 52 l-24 26 24 19 c15 13 39 19 70 19 l48 0 -15 -49z m106 23 l37 -16
-50 -14 c-67 -18 -65 -18 -54 16 13 35 17 36 67 14z m277 -47 c58 -28 72 -75
36 -118 l-20 -24 -45 45 c-31 31 -47 57 -51 82 l-7 38 33 -6 c19 -4 43 -11 54
-17z m-187 -14 c5 -32 40 -55 64 -42 14 7 20 6 24 -6 9 -23 -2 -145 -14 -157
-6 -6 -40 -18 -77 -29 l-66 -18 -60 37 -59 37 1 60 c2 95 8 108 64 127 69 24
119 20 123 -9z m-216 -86 l-7 -58 -34 35 c-22 23 -31 40 -25 45 10 11 67 41
70 38 1 -1 -1 -28 -4 -60z m373 -23 c27 -36 28 -37 9 -51 -52 -39 -54 -38 -53
27 1 33 5 60 9 60 4 0 20 -16 35 -36z m-363 -115 c4 -26 2 -29 -23 -29 -59 0
-129 45 -129 83 0 11 10 35 21 54 l21 34 53 -57 c31 -33 55 -68 57 -85z m416
17 c8 -64 -22 -96 -90 -96 -27 0 -30 3 -24 23 3 12 6 29 6 38 0 18 77 70 95
65 6 -1 11 -15 13 -30z m-356 -26 l33 -20 -37 0 c-31 0 -38 4 -38 20 0 25 2
25 42 0z m208 -22 c-1 -33 -16 -41 -56 -28 l-38 13 35 12 c46 17 59 17 59 3z
m-72 -45 c23 -8 42 -17 42 -20 0 -16 -44 -62 -70 -73 -24 -10 -36 -10 -60 0
-25 10 -30 18 -30 46 0 28 -5 37 -27 46 -27 12 -27 12 22 18 52 7 55 7 123
-17z" id="node17" class="node" stroke-width="20"></path>
<path d="M1709 2132 c-26 -22 -30 -71 -9 -98 35 -41 100 -33 126 17 12 24 21
29 49 29 29 0 35 4 35 21 0 19 -4 21 -41 16 -32 -4 -45 -1 -60 14 -24 24 -70
24 -100 1z m97 -42 c0 -11 -4 -20 -8 -20 -4 0 -8 9 -8 20 0 11 4 20 8 20 4 0
8 -9 8 -20z" id="node18" class="node" stroke-width="20"></path>
<path d="M1043 2047 c-84 -34 -152 -66 -150 -70 1 -5 74 -40 160 -77 l158 -69
67 29 c36 15 68 32 69 37 4 11 -118 73 -144 73 -29 0 -38 17 -15 29 23 12 62
3 62 -14 0 -6 28 -29 62 -49 l62 -37 82 33 c45 18 83 37 84 42 2 12 -295 136
-324 135 -11 0 -90 -29 -173 -62z" id="node19" class="node" stroke-width="20"></path>
<path d="M1974 1971 c5 -56 3 -70 -9 -75 -8 -3 -15 -16 -15 -28 0 -15 -3 -19
-8 -11 -6 9 -24 8 -75 -8 -61 -18 -69 -19 -89 -5 -12 9 -33 16 -46 16 -31 0
-72 -43 -72 -75 0 -14 11 -37 25 -50 13 -14 36 -25 50 -25 31 0 88 51 66 58
-8 3 23 20 69 38 61 25 87 31 96 23 19 -16 55 -7 71 18 13 19 12 24 -6 42 -17
17 -21 34 -21 86 0 60 -2 65 -21 65 -21 0 -22 -3 -15 -69z" id="node20" class="node" stroke-width="20"></path>
<path d="M1378 1869 c-19 -11 -24 -44 -9 -53 5 -3 11 -22 13 -41 4 -33 2 -35
-25 -35 -27 0 -29 2 -23 30 3 17 9 44 12 60 l7 31 -53 -21 c-29 -11 -61 -25
-71 -30 -13 -7 -35 -2 -81 19 -117 52 -108 56 -108 -47 l0 -90 53 -23 c75 -34
193 -34 260 0 l47 25 0 93 c0 51 -1 93 -2 93 -2 0 -11 -5 -20 -11z" id="node21" class="node" stroke-width="20"></path>
<path d="M1929 1780 c-13 -23 -30 -40 -41 -40 -12 0 -15 -5 -11 -17 5 -12 -1
-11 -25 7 -26 19 -34 21 -47 10 -23 -19 -18 -27 20 -34 20 -4 33 -11 29 -17
-8 -14 15 -39 37 -39 24 0 49 27 49 52 0 14 -5 18 -16 14 -10 -4 -2 13 19 43
33 45 37 61 16 61 -4 0 -18 -18 -30 -40z" id="node22" class="node" stroke-width="20"></path>






















<path d="M2640 1555 c-11 -13 -8 -21 19 -48 l31 -33 -30 -29 -30 -29 -33 32
-33 32 -177 -178 c-158 -158 -176 -180 -162 -192 9 -7 13 -20 10 -28 -8 -21
62 -92 83 -85 8 4 21 -2 29 -13 12 -17 26 -6 188 156 96 96 175 179 175 184 0
6 -14 24 -30 41 l-30 31 30 29 30 29 28 -27 c31 -30 42 -33 60 -15 10 10 -3
28 -60 85 -40 40 -75 73 -79 73 -4 0 -12 -7 -19 -15z m-92 -222 c-44 -44 -59
-66 -52 -73 8 -8 29 7 72 52 l61 63 26 -25 25 -25 -160 -160 -160 -160 -57 58
-58 57 111 111 c104 104 112 110 128 94 22 -23 34 -10 13 13 -16 17 -16 20 6
40 22 20 24 21 40 5 22 -22 35 -8 14 15 -13 14 -14 21 -5 30 9 9 17 7 35 -10
l24 -22 -63 -63z" id="node45" class="node" stroke-width="20"></path>
<path d="M2407 1254 c-24 -20 -27 -27 -17 -39 9 -11 9 -15 1 -15 -6 0 -11 5
-11 12 0 6 -14 -1 -30 -17 -17 -16 -28 -35 -26 -42 3 -7 -1 -10 -8 -7 -7 3
-18 -1 -24 -9 -9 -10 -2 -23 30 -56 l40 -44 81 82 81 81 -39 40 c-21 22 -42
40 -45 40 -3 0 -18 -12 -33 -26z" id="node46" class="node" stroke-width="20"></path>










<path d="M1805 1501 c-3 -5 -1 -12 5 -16 6 -4 7 -11 4 -17 -5 -7 -12 -4 -21 7
-16 24 -17 12 0 -16 10 -17 9 -22 -9 -37 -12 -9 -34 -40 -48 -69 -22 -45 -29
-52 -53 -50 -22 2 -29 -3 -31 -21 -6 -37 5 -57 23 -42 19 16 40 3 24 -16 -15
-18 15 -31 35 -15 11 9 23 8 51 -4 46 -18 42 -19 49 2 5 11 -1 23 -15 34 l-23
17 19 42 c10 22 22 43 26 46 5 3 18 -14 30 -37 24 -48 21 -84 -12 -130 -29
-41 -87 -40 -171 2 -48 24 -63 28 -69 17 -16 -25 -9 -34 56 -66 l65 -32 0 -44
0 -45 -92 2 -93 2 -3 -27 -3 -28 191 0 191 0 -3 28 c-2 19 -9 28 -25 30 -14 2
-26 16 -37 43 l-16 40 33 33 c66 65 66 168 1 244 -34 40 -38 72 -9 72 31 0 23
21 -14 40 -46 23 -48 23 -56 11z" id="node57" class="node" stroke-width="20"></path>




<path d="M1196 1441 c-16 -16 -25 -34 -21 -41 4 -7 -39 -56 -107 -123 -171
-168 -182 -187 -132 -246 20 -24 34 -31 63 -31 33 0 47 11 170 134 81 81 139
132 148 129 15 -6 39 11 53 37 7 13 -8 33 -68 94 l-78 76 -28 -29z m84 -77
c30 -31 48 -54 40 -52 -9 3 -67 -46 -153 -131 -76 -75 -145 -140 -153 -144
-24 -13 -64 18 -64 50 0 21 31 58 139 167 76 78 136 147 134 154 -8 21 1 14
57 -44z" id="node62" class="node" stroke-width="20"></path>
<path d="M1072 1213 c-62 -60 -112 -113 -112 -119 0 -5 6 -18 13 -29 24 -32
57 -10 192 125 l130 130 -55 0 -55 0 -113 -107z" id="node63" class="node" stroke-width="20"></path>




<path d="M170 1330 c0 -16 5 -30 10 -30 6 0 10 -7 10 -15 0 -9 -9 -15 -25 -15
-19 0 -25 5 -25 21 0 12 -5 19 -12 17 -10 -4 -14 -49 -16 -171 -2 -139 -5
-167 -17 -167 -8 0 -15 -9 -15 -20 0 -20 5 -20 352 -18 327 3 353 4 356 21 2
10 -3 17 -12 17 -14 0 -16 22 -16 170 0 116 -3 170 -11 170 -6 0 -13 -9 -16
-20 -3 -11 -14 -20 -24 -20 -16 0 -18 6 -12 45 l6 45 -80 0 -80 0 4 -147 c5
-185 9 -209 36 -228 20 -14 17 -15 -51 -15 -72 0 -72 0 -52 20 18 18 20 33 20
164 0 86 4 147 10 151 6 3 10 17 10 31 0 24 -2 24 -85 24 -83 0 -85 0 -85 -24
0 -14 5 -28 10 -31 6 -4 10 -65 10 -150 0 -143 0 -144 26 -164 l27 -21 -72 0
c-71 0 -71 0 -51 20 18 18 20 33 20 164 0 86 4 147 10 151 6 3 10 17 10 31 0
24 -2 24 -85 24 l-85 0 0 -30z m132 -147 c-2 -93 -7 -162 -14 -170 -16 -19
-56 -16 -68 6 -5 11 -10 84 -10 165 0 106 -3 146 -12 149 -7 3 14 6 47 6 l60
1 -3 -157z m180 0 c-2 -93 -7 -162 -14 -170 -16 -20 -56 -16 -68 8 -7 12 -11
73 -9 158 1 76 -1 143 -5 150 -5 8 9 11 46 11 l53 0 -3 -157z m189 144 c-6 -8
-12 -75 -13 -168 l-3 -154 -35 0 -35 0 -3 154 c-1 93 -7 160 -13 168 -9 10 0
13 51 13 51 0 60 -3 51 -13z m-481 -199 c0 -101 2 -114 22 -135 l21 -23 -46 0
-47 0 0 135 0 135 25 0 25 0 0 -112z m540 -28 l0 -130 -46 0 -46 0 23 19 c22
18 24 28 27 130 3 101 5 111 23 111 18 0 19 -9 19 -130z" id="node68" class="node" stroke-width="20"></path>
<path d="M230 1206 c-3 -2 -4 -45 -2 -96 4 -95 15 -117 47 -90 12 10 15 32 13
99 -3 84 -4 86 -28 89 -14 2 -28 1 -30 -2z" id="node69" class="node" stroke-width="20"></path>
<path d="M410 1115 c0 -76 3 -97 15 -101 33 -13 45 15 45 107 l0 89 -30 0 -30
0 0 -95z" id="node70" class="node" stroke-width="20"></path>
<path d="M592 1113 c3 -97 3 -98 28 -98 25 0 25 1 28 98 l3 97 -31 0 -31 0 3
-97z" id="node71" class="node" stroke-width="20"></path>
<path d="M1368 1272 c-10 -20 -28 -52 -39 -70 l-22 -34 20 -26 c17 -23 28 -27
69 -27 44 0 50 3 62 28 11 22 11 35 2 60 -13 37 -57 107 -68 107 -4 0 -15 -17
-24 -38z m81 -94 c1 -20 -32 -58 -50 -58 -6 0 -1 12 10 26 12 15 21 41 22 58
0 26 2 28 9 11 5 -11 9 -28 9 -37z" id="node72" class="node" stroke-width="20"></path>
<path d="M2200 985 c-42 -43 -43 -45 -19 -45 29 0 95 62 85 79 -11 18 -19 13
-66 -34z" id="node73" class="node" stroke-width="20"></path>
<path d="M2640 855 c-35 -35 -72 -65 -83 -67 -37 -5 -29 -27 33 -88 66 -64 90
-74 90 -37 0 15 23 45 65 87 74 74 80 96 36 141 -44 44 -67 38 -141 -36z" id="node74" class="node" stroke-width="20"></path>
<path d="M1684 810 c-84 -19 -141 -104 -131 -192 12 -99 95 -163 205 -156 l57
3 -3 -32 c-3 -24 10 -54 50 -122 29 -50 61 -94 70 -97 29 -9 57 5 64 32 8 33
-90 204 -129 222 -33 16 -34 26 -3 59 45 48 52 135 18 200 -18 33 -69 71 -110
83 -41 11 -44 11 -88 0z m124 -49 c38 -20 62 -70 62 -128 0 -44 -5 -58 -30
-87 -105 -120 -297 -18 -252 133 28 92 130 130 220 82z" id="node75" class="node" stroke-width="20"></path>
<path d="M1670 752 c-39 -21 -73 -79 -68 -114 3 -19 7 -15 25 25 18 38 31 52
65 67 24 11 52 20 63 20 17 0 17 2 5 10 -23 15 -52 12 -90 -8z" id="node76" class="node" stroke-width="20"></path>
<path d="M1071 786 c-13 -16 -6 -56 10 -56 5 0 9 -41 9 -91 l0 -91 -76 -135
c-113 -202 -104 -213 166 -213 l172 0 29 29 c35 35 37 28 -58 192 l-73 125 0
86 c0 65 4 89 16 98 8 8 14 25 12 39 -3 26 -4 26 -99 29 -75 2 -99 -1 -108
-12z m167 -23 c-16 -4 -18 -18 -18 -116 l0 -111 75 -132 c41 -73 75 -136 75
-141 0 -24 -57 -33 -204 -33 -132 0 -157 3 -175 17 l-21 18 75 135 75 135 0
112 c0 80 -4 113 -12 116 -7 3 23 5 67 5 44 0 72 -2 63 -5z" id="node77" class="node" stroke-width="20"></path>
<path d="M1058 357 l-47 -82 156 -3 c86 -1 158 -1 160 2 2 2 -17 40 -43 85
l-47 81 -66 0 -66 0 -47 -83z" id="node78" class="node" stroke-width="20"></path>
<path d="M214 780 c-49 -20 -54 -42 -54 -238 0 -249 1 -252 153 -252 75 0 77
0 77 -25 0 -24 -2 -25 -65 -25 -58 0 -65 -2 -65 -20 0 -19 7 -20 225 -20 218
0 225 1 225 20 0 18 -7 20 -65 20 -63 0 -65 1 -65 25 0 25 1 25 79 25 64 0 83
4 105 21 l26 20 0 208 c0 199 -1 209 -21 227 -19 18 -41 19 -278 21 -141 1
-266 -2 -277 -7z m526 -234 l0 -195 -42 -6 c-24 -3 -142 -5 -263 -3 l-220 3
-3 198 -2 197 265 0 265 0 0 -194z m-20 -226 c0 -5 -4 -10 -9 -10 -6 0 -13 5
-16 10 -3 6 1 10 9 10 9 0 16 -4 16 -10z" id="node79" class="node" stroke-width="20"></path>
<path d="M2429 653 c-64 -65 -88 -97 -93 -123 -3 -19 -18 -46 -32 -61 -15 -15
-23 -32 -20 -38 10 -15 76 62 76 89 0 15 30 53 90 114 50 51 90 95 90 99 0 22
-36 -3 -111 -80z" id="node80" class="node" stroke-width="20"></path>
<path d="M2531 566 c-65 -65 -93 -87 -125 -95 -23 -5 -54 -23 -70 -39 -39 -42
-15 -52 30 -13 20 18 46 31 61 31 19 0 49 23 114 87 79 77 105 113 81 113 -4
0 -45 -38 -91 -84z" id="node81" class="node" stroke-width="20"></path>
<path d="M2269 373 c-38 -40 -52 -71 -45 -99 8 -32 46 -46 85 -33 41 14 45 35
17 83 -13 22 -25 49 -27 59 -4 16 -7 15 -30 -10z m3 -110 c13 -16 -4 -17 -20
-1 -13 13 -16 51 -4 62 4 4 9 -5 10 -21 2 -15 8 -34 14 -40z" id="node82" class="node" stroke-width="20"></path>
























</g>
<g transform="translate(0.000000,300.000000) scale(0.100000,-0.100000)" fill="#FFFFFF" stroke="none">

<path d="M1181 2758 c-1 -20 -4 -21 -117 -18 -49 1 -84 -3 -88 -9 -13 -20 16
-95 48 -127 41 -41 97 -57 151 -43 68 18 125 88 125 154 0 24 -3 25 -54 25
-44 0 -55 4 -59 18 -4 16 -5 16 -6 0z m77 -71 c-3 -32 -4 -32 -60 -35 -54 -3
-58 -2 -59 20 l-2 23 -4 -22 c-4 -21 -10 -23 -59 -23 l-54 0 0 35 0 34 121 0
120 0 -3 -32z m-80 -79 c-3 -7 -21 -14 -41 -16 -28 -2 -37 1 -37 12 0 12 11
16 41 16 28 0 39 -4 37 -12z" id="node108" class="node" stroke-width="20"></path>
<path d="M1040 2685 c0 -10 11 -15 35 -15 24 0 35 5 35 15 0 10 -11 15 -35 15
-24 0 -35 -5 -35 -15z" id="node109" class="node" stroke-width="20"></path>
<path d="M1160 2685 c0 -11 11 -15 40 -15 29 0 40 4 40 15 0 11 -11 15 -40 15
-29 0 -40 -4 -40 -15z" id="node110" class="node" stroke-width="20"></path>
<path d="M351 2828 c-60 -32 -83 -77 -78 -147 3 -48 8 -58 45 -93 37 -34 46
-38 95 -38 96 0 163 69 154 159 -11 108 -122 169 -216 119z m111 -45 c25 -22
23 -56 -7 -91 -14 -17 -25 -35 -25 -42 0 -6 -6 -10 -12 -7 -17 6 -11 37 13 63
16 17 27 64 15 64 -2 0 -11 3 -19 6 -8 3 -24 -5 -36 -17 -15 -17 -24 -20 -32
-12 -16 16 24 53 58 53 14 0 35 -7 45 -17z m-24 -171 c2 -7 -6 -12 -17 -12
-21 0 -27 11 -14 24 9 9 26 2 31 -12z" id="node111" class="node" stroke-width="20"></path>













































</g>
</svg>